<svg xmlns="http://www.w3.org/2000/svg" viewBox="0 0 580.3 88.4"><path d="M20 46.8c0-15 8.5-25.3 20.4-25.3 6.7 0 10.9 3.1 13.6 7.1h.3V4H67v66.6H54.8v-6.3h-.1c-2.8 4.6-7.6 7.7-14.3 7.7-12.1.2-20.4-9.6-20.4-25.2zm34.4.3c0-9.1-2.9-15.3-11.1-15.3-7 0-10.5 6.2-10.5 15 0 9.2 3.6 14.7 10.2 14.7 7.5 0 11.4-5.6 11.4-14.4zm50.8 23.7v-5.6h-.2c-3.2 4.3-7 6.9-13.7 6.9-10.6 0-16.7-6.9-16.7-17.2v-32h12.6v29.8c0 5.6 2.5 8.7 8 8.7 6 0 9.7-4.5 9.7-10.8V23h12.7v47.9h-12.3v-.1zm20.5-47.9h12.2v6h.3c3.1-4.2 7.6-7.3 14.1-7.3 12.7 0 20.9 10.4 20.9 25.3 0 15.5-8.4 25.3-20.7 25.3-6.7 0-11.1-2.7-13.9-6.9h-.1v21h-12.7l-.1-63.4zm34.5 24.3c0-9.1-3.2-15.4-11.1-15.4-8 0-11.1 6.9-11.1 15.4 0 8.7 4.1 14.4 11.6 14.4 6.4.1 10.6-5.3 10.6-14.4zm18.9-43.1h12.7v66.6h-12.7V4.1zm18.8 42.7c0-14.1 9.7-25.2 23.7-25.2 15.4 0 23.7 11.8 23.7 28.8h-34.7c1 7.4 5 11.9 12.2 11.9 4.9 0 7.8-2.2 9.2-5.9h12.5c-1.8 8.5-9.4 15.7-21.7 15.7-16 .1-24.9-11-24.9-25.3zm12.6-5.2h21.3c-.4-6-4.3-10.2-10.2-10.2-6.6 0-10 4.1-11.1 10.2zm51.8 3.8l-15.5-22.5h14.4l8.5 13.7h.1l8-13.7H291l-14.8 22.4 17.1 25.5h-15.1L269.4 55h-.1l-10.4 15.8H245l17.3-25.4zm48.4 9.8h11.8c.8 5.5 4.8 8 10.5 8 5.6 0 8.8-2.1 8.8-5.5 0-4.6-6-5-12.6-6.3-8.5-1.7-16.9-4.1-16.9-14.4 0-10.4 8.5-15.3 19.5-15.3 12.6 0 19.6 6.3 20.6 15.8h-11.5c-.6-5.2-3.8-7-9.2-7-4.9 0-8.3 1.8-8.3 5.3 0 4.1 6.3 4.5 13.2 5.9 8 1.7 16.9 3.9 16.9 15.1 0 9.7-8.3 15.4-20.2 15.4-14.1 0-21.9-6.8-22.6-17zm44.5-32.3h6.6V8.1h12.5v15h8.3v8.4h-8.3v25.3c0 3.5 2 4.8 4.8 4.8 1.5 0 3.8-.1 3.8-.1v9.4s-2.9.1-8 .1c-6.2 0-13-2.4-13-11.5V31.3h-6.6v-8.4zm64 47.9v-5.6h-.3c-3.2 4.3-7 6.9-13.7 6.9-10.6 0-16.7-6.9-16.7-17.2v-32h12.6v29.8c0 5.6 2.5 8.7 8 8.7 6 0 9.7-4.5 9.7-10.8V23h12.7v47.9h-12.3v-.1zm18-24c0-15 8.5-25.3 20.4-25.3 6.7 0 10.9 3.1 13.6 7.1h.3V4h12.7v66.6H472v-6.3h-.1c-2.8 4.6-7.6 7.7-14.3 7.7-12.3.2-20.4-9.6-20.4-25.2zm34.4.3c0-9.1-2.9-15.3-11.1-15.3-7 0-10.5 6.2-10.5 15 0 9.2 3.6 14.7 10.2 14.7 7.5 0 11.4-5.6 11.4-14.4zm20.6-43h12.7v11.3h-12.7V4.1zm0 18.8h12.7v47.9h-12.7V22.9zm18.6 23.9c0-14.3 10.2-25.3 25.1-25.3 14.8 0 25.1 11.1 25.1 25.3 0 14.3-10.2 25.3-25.1 25.3-14.9.1-25.1-11-25.1-25.3zm37.1 0c0-9.4-4.3-15.7-12.2-15.7s-12.2 6.3-12.2 15.7 4.3 15.5 12.2 15.5c7.9.2 12.2-6.1 12.2-15.5z" fill="#fff" fill-opacity="0" stroke="#fff" stroke-miterlimit="10"/></svg>