<?xml version="1.0" encoding="utf-8"?>
<!-- Generator: Adobe Illustrator 22.1.0, SVG Export Plug-In . SVG Version: 6.00 Build 0)  -->
<svg version="1.1" id="Layer_1" xmlns="http://www.w3.org/2000/svg" xmlns:xlink="http://www.w3.org/1999/xlink" x="0px" y="0px"
	 viewBox="0 0 580.3 88.4" style="enable-background:new 0 0 580.3 88.4;" xml:space="preserve">
<style type="text/css">
	.st0{fill:white;fill-opacity:0;stroke:#FFFFFF;stroke-miterlimit:10;}
</style>
<g>
	<g>
		<path class="st0" d="M20,46.8c0-15,8.5-25.3,20.4-25.3c6.7,0,10.9,3.1,13.6,7.1h0.3V4H67v66.6H54.8v-6.3h-0.1
			c-2.8,4.6-7.6,7.7-14.3,7.7C28.3,72.2,20,62.4,20,46.8z M54.4,47.1c0-9.1-2.9-15.3-11.1-15.3c-7,0-10.5,6.2-10.5,15
			c0,9.2,3.6,14.7,10.2,14.7C50.5,61.5,54.4,55.9,54.4,47.1z"/>
	</g>
	<g>
		<path class="st0" d="M105.2,70.8v-5.6H105c-3.2,4.3-7,6.9-13.7,6.9c-10.6,0-16.7-6.9-16.7-17.2V22.9h12.6v29.8
			c0,5.6,2.5,8.7,8,8.7c6,0,9.7-4.5,9.7-10.8V23h12.7v47.9h-12.3V70.8z"/>
	</g>
	<g>
		<path class="st0" d="M125.7,22.9h12.2v6h0.3c3.1-4.2,7.6-7.3,14.1-7.3c12.7,0,20.9,10.4,20.9,25.3c0,15.5-8.4,25.3-20.7,25.3
			c-6.7,0-11.1-2.7-13.9-6.9h-0.1v21h-12.7L125.7,22.9L125.7,22.9z M160.2,47.2c0-9.1-3.2-15.4-11.1-15.4c-8,0-11.1,6.9-11.1,15.4
			c0,8.7,4.1,14.4,11.6,14.4C156,61.7,160.2,56.3,160.2,47.2z"/>
	</g>
	<g>
		<path class="st0" d="M179.1,4.1h12.7v66.6h-12.7V4.1z"/>
	</g>
	<g>
		<path class="st0" d="M197.9,46.8c0-14.1,9.7-25.2,23.7-25.2c15.4,0,23.7,11.8,23.7,28.8h-34.7c1,7.4,5,11.9,12.2,11.9
			c4.9,0,7.8-2.2,9.2-5.9h12.5c-1.8,8.5-9.4,15.7-21.7,15.7C206.8,72.2,197.9,61.1,197.9,46.8z M210.5,41.6h21.3
			c-0.4-6-4.3-10.2-10.2-10.2C215,31.4,211.6,35.5,210.5,41.6z"/>
	</g>
	<g>
		<path class="st0" d="M262.3,45.4l-15.5-22.5h14.4l8.5,13.7h0.1l8-13.7H291l-14.8,22.4l17.1,25.5h-15.1l-8.8-15.8h-0.1l-10.4,15.8
			h-13.9L262.3,45.4z"/>
	</g>
	<g>
		<path class="st0" d="M310.7,55.2h11.8c0.8,5.5,4.8,8,10.5,8c5.6,0,8.8-2.1,8.8-5.5c0-4.6-6-5-12.6-6.3
			c-8.5-1.7-16.9-4.1-16.9-14.4c0-10.4,8.5-15.3,19.5-15.3c12.6,0,19.6,6.3,20.6,15.8h-11.5c-0.6-5.2-3.8-7-9.2-7
			c-4.9,0-8.3,1.8-8.3,5.3c0,4.1,6.3,4.5,13.2,5.9c8,1.7,16.9,3.9,16.9,15.1c0,9.7-8.3,15.4-20.2,15.4
			C319.2,72.2,311.4,65.4,310.7,55.2z"/>
	</g>
	<g>
		<path class="st0" d="M355.2,22.9h6.6V8.1h12.5v15h8.3v8.4h-8.3v25.3c0,3.5,2,4.8,4.8,4.8c1.5,0,3.8-0.1,3.8-0.1v9.4
			c0,0-2.9,0.1-8,0.1c-6.2,0-13-2.4-13-11.5V31.3h-6.6V22.9z"/>
	</g>
	<g>
		<path class="st0" d="M419.2,70.8v-5.6h-0.3c-3.2,4.3-7,6.9-13.7,6.9c-10.6,0-16.7-6.9-16.7-17.2V22.9h12.6v29.8
			c0,5.6,2.5,8.7,8,8.7c6,0,9.7-4.5,9.7-10.8V23h12.7v47.9h-12.3V70.8z"/>
	</g>
	<g>
		<path class="st0" d="M437.2,46.8c0-15,8.5-25.3,20.4-25.3c6.7,0,10.9,3.1,13.6,7.1h0.3V4h12.7v66.6h-12.2v-6.3h-0.1
			c-2.8,4.6-7.6,7.7-14.3,7.7C445.3,72.2,437.2,62.4,437.2,46.8z M471.6,47.1c0-9.1-2.9-15.3-11.1-15.3c-7,0-10.5,6.2-10.5,15
			c0,9.2,3.6,14.7,10.2,14.7C467.7,61.5,471.6,55.9,471.6,47.1z"/>
	</g>
	<g>
		<path class="st0" d="M492.2,4.1h12.7v11.3h-12.7V4.1z M492.2,22.9h12.7v47.9h-12.7V22.9z"/>
	</g>
	<g>
		<path class="st0" d="M510.8,46.8c0-14.3,10.2-25.3,25.1-25.3c14.8,0,25.1,11.1,25.1,25.3c0,14.3-10.2,25.3-25.1,25.3
			C521,72.2,510.8,61.1,510.8,46.8z M547.9,46.8c0-9.4-4.3-15.7-12.2-15.7s-12.2,6.3-12.2,15.7s4.3,15.5,12.2,15.5
			C543.6,62.5,547.9,56.2,547.9,46.8z"/>
	</g>
</g>
</svg>
